<?xml version="1.0" encoding="UTF-8"?>
<svg xmlns="http://www.w3.org/2000/svg" xmlns:xlink="http://www.w3.org/1999/xlink" width="410.3pt" height="87.23pt" viewBox="0 0 410.3 87.23" version="1.1">
<defs>
<clipPath id="clip1">
  <path d="M 217 19 L 274 19 L 274 87.230469 L 217 87.230469 Z M 217 19 "/>
</clipPath>
<clipPath id="clip2">
  <path d="M 380 3 L 410.300781 3 L 410.300781 70 L 380 70 Z M 380 3 "/>
</clipPath>
</defs>
<g id="surface1">
<path style=" stroke:none;fill-rule:nonzero;fill:rgb(0.799561%,52.89917%,13.299561%);fill-opacity:1;" d="M 115.910156 66.515625 L 106.804688 66.515625 L 102.71875 43.101563 L 95.828125 48.207031 L 88.160156 66.515625 L 80.449219 66.515625 L 107.089844 2.976563 L 114.789063 2.976563 L 99.699219 38.980469 L 123.9375 20.46875 L 133.527344 20.46875 L 110.074219 37.671875 "/>
<path style=" stroke:none;fill-rule:nonzero;fill:rgb(0.799561%,52.89917%,13.299561%);fill-opacity:1;" d="M 149.242188 9.105469 L 141.058594 9.105469 L 137.074219 20.46875 L 131.492188 20.46875 L 129.242188 26.863281 L 134.824219 26.863281 L 125.644531 53.003906 C 124.859375 55.207031 124.25 57.1875 123.785156 58.929688 C 123.335938 60.679688 123.25 62.164063 123.53125 63.367188 C 123.808594 64.59375 124.570313 65.527344 125.816406 66.167969 C 127.050781 66.820313 128.929688 67.121094 131.488281 67.121094 C 132.53125 67.121094 133.539063 67.101563 134.523438 66.992188 C 135.519531 66.910156 136.492188 66.769531 137.464844 66.582031 L 139.617188 60.457031 C 138.9375 60.597656 138.261719 60.679688 137.582031 60.722656 C 136.914063 60.78125 136.214844 60.792969 135.484375 60.792969 C 134.804688 60.792969 134.210938 60.710938 133.703125 60.5625 C 133.1875 60.402344 132.84375 60.070313 132.65625 59.5625 C 132.464844 59.046875 132.453125 58.308594 132.589844 57.339844 C 132.714844 56.378906 133.074219 55.085938 133.636719 53.464844 L 142.992188 26.863281 L 150.332031 26.863281 L 152.589844 20.46875 L 145.238281 20.46875 "/>
<path style=" stroke:none;fill-rule:nonzero;fill:rgb(3.49884%,37.599182%,13.699341%);fill-opacity:1;" d="M 174.457031 20.898438 C 175.109375 20.804688 175.757813 20.621094 176.414063 20.34375 C 175.71875 20.503906 175.109375 20.710938 174.457031 20.898438 "/>
<path style=" stroke:none;fill-rule:nonzero;fill:rgb(0.799561%,52.89917%,13.299561%);fill-opacity:1;" d="M 177.132813 54.40625 C 176.03125 55.480469 174.832031 56.429688 173.515625 57.253906 C 172.203125 58.089844 170.851563 58.820313 169.453125 59.410156 C 168.070313 60.011719 166.667969 60.464844 165.269531 60.769531 C 163.875 61.078125 162.527344 61.210938 161.210938 61.210938 C 158.214844 61.210938 156.101563 60.578125 154.851563 59.335938 C 153.613281 58.089844 153.40625 56.292969 154.234375 53.949219 C 156.535156 47.40625 163.527344 44.136719 175.226563 44.136719 L 180.746094 44.136719 Z M 191.433594 22.878906 C 190.285156 21.585938 188.65625 20.699219 186.53125 20.226563 C 184.421875 19.746094 181.898438 19.503906 178.992188 19.503906 C 175.957031 19.503906 173.1875 19.785156 170.671875 20.339844 C 170.03125 20.621094 169.398438 20.800781 168.777344 20.898438 C 161.96875 22.910156 157.144531 27.136719 154.414063 33.675781 L 162.511719 33.675781 C 164.546875 28.398438 169.171875 25.761719 176.382813 25.761719 C 178.960938 25.761719 180.875 26.003906 182.152344 26.484375 C 183.414063 26.984375 184.234375 27.730469 184.570313 28.738281 C 184.914063 29.746094 184.890625 31.054688 184.527344 32.621094 C 184.160156 34.1875 183.601563 36.03125 182.847656 38.15625 L 178.90625 38.15625 C 160.617188 38.15625 149.59375 43.542969 145.804688 54.335938 C 145.101563 56.300781 144.84375 58.101563 145.039063 59.730469 C 145.242188 61.375 145.820313 62.773438 146.800781 63.925781 C 147.761719 65.109375 149.082031 66 150.769531 66.65625 C 152.441406 67.296875 154.386719 67.617188 156.609375 67.617188 C 163.035156 67.617188 169.015625 65.691406 174.527344 61.828125 L 172.886719 66.515625 L 180.984375 66.515625 L 191.4375 36.777344 C 192.652344 33.285156 193.253906 30.414063 193.203125 28.167969 C 193.144531 25.925781 192.558594 24.15625 191.433594 22.878906 "/>
<path style=" stroke:none;fill-rule:nonzero;fill:rgb(0.799561%,52.89917%,13.299561%);fill-opacity:1;" d="M 202.21875 67.617188 C 189.796875 67.617188 185.050781 62.65625 187.992188 52.742188 L 196.160156 52.742188 C 194.265625 58.398438 197.007813 61.210938 204.40625 61.210938 C 207.777344 61.210938 210.578125 60.539063 212.765625 59.164063 C 214.953125 57.828125 216.433594 56.039063 217.214844 53.828125 C 217.578125 52.816406 217.699219 51.960938 217.589844 51.289063 C 217.480469 50.628906 217.050781 50.035156 216.289063 49.496094 C 215.535156 48.953125 214.386719 48.429688 212.851563 47.90625 C 211.3125 47.382813 209.28125 46.753906 206.761719 46.066406 C 204.296875 45.382813 202.210938 44.707031 200.511719 44.039063 C 198.839844 43.375 197.527344 42.542969 196.613281 41.554688 C 195.699219 40.582031 195.1875 39.375 195.078125 37.984375 C 194.984375 36.578125 195.304688 34.820313 196.050781 32.722656 C 196.734375 30.78125 197.742188 29.019531 199.105469 27.410156 C 200.460938 25.804688 202.078125 24.414063 203.984375 23.246094 C 205.855469 22.074219 207.976563 21.171875 210.316406 20.503906 C 212.664063 19.828125 215.128906 19.503906 217.71875 19.503906 C 229.597656 19.503906 234.179688 23.792969 231.429688 32.367188 L 223.253906 32.367188 C 224.53125 27.972656 222.121094 25.761719 216 25.761719 C 214.722656 25.761719 213.488281 25.886719 212.269531 26.15625 C 211.0625 26.390625 209.933594 26.773438 208.902344 27.289063 C 207.859375 27.785156 206.96875 28.425781 206.207031 29.199219 C 205.433594 29.980469 204.859375 30.878906 204.511719 31.890625 C 204.1875 32.808594 204.011719 33.5625 203.992188 34.125 C 203.984375 34.703125 204.285156 35.242188 204.941406 35.707031 C 205.566406 36.195313 206.640625 36.671875 208.117188 37.160156 C 209.609375 37.640625 211.679688 38.238281 214.378906 38.980469 C 216.835938 39.671875 218.96875 40.367188 220.761719 41.09375 C 222.558594 41.800781 223.933594 42.675781 224.886719 43.707031 C 225.871094 44.738281 226.433594 45.996094 226.601563 47.460938 C 226.757813 48.945313 226.449219 50.78125 225.683594 52.992188 C 224.960938 55.011719 223.871094 56.925781 222.40625 58.722656 C 220.9375 60.515625 219.171875 62.058594 217.128906 63.367188 C 215.082031 64.691406 212.777344 65.722656 210.238281 66.480469 C 207.714844 67.242188 205.042969 67.617188 202.21875 67.617188 "/>
<g clip-path="url(#clip1)" clip-rule="nonzero">
<path style=" stroke:none;fill-rule:nonzero;fill:rgb(67.098999%,67.799377%,68.598938%);fill-opacity:1;" d="M 238.898438 49.140625 C 238.3125 52.730469 238.164063 55.234375 238.40625 56.621094 C 238.78125 58.582031 239.683594 60.15625 241.09375 61.375 C 242.496094 62.585938 244.257813 63.179688 246.371094 63.179688 C 250.765625 63.179688 254.753906 60.539063 258.320313 55.234375 C 261.882813 49.933594 264.117188 44.523438 265.019531 39.007813 C 265.691406 34.925781 265.285156 31.789063 263.84375 29.554688 C 262.390625 27.34375 260.300781 26.226563 257.589844 26.226563 C 255.652344 26.226563 253.757813 26.785156 251.921875 27.882813 C 250.070313 28.984375 248.269531 30.632813 246.480469 32.808594 C 244.703125 35.007813 243.101563 37.691406 241.644531 40.859375 C 240.203125 44.03125 239.296875 46.789063 238.898438 49.140625 M 217.558594 87.230469 L 241.386719 20.710938 L 248.449219 20.710938 L 246.035156 27.410156 C 249.144531 24.496094 251.816406 22.441406 254.066406 21.324219 C 256.328125 20.191406 258.609375 19.613281 260.921875 19.613281 C 265.203125 19.613281 268.480469 21.28125 270.742188 24.628906 C 273.019531 27.953125 273.644531 32.753906 272.636719 38.964844 C 271.816406 43.96875 270.300781 48.535156 268.074219 52.652344 C 265.839844 56.78125 263.410156 60.09375 260.753906 62.597656 C 258.09375 65.109375 255.511719 66.933594 253.003906 68.109375 C 250.507813 69.296875 248.03125 69.890625 245.605469 69.890625 C 240.234375 69.890625 236.527344 66.960938 234.546875 61.097656 L 225.203125 87.230469 "/>
</g>
<path style=" stroke:none;fill-rule:nonzero;fill:rgb(67.098999%,67.799377%,68.598938%);fill-opacity:1;" d="M 269.273438 68.796875 L 293.039063 2.417969 L 300.671875 2.417969 L 276.917969 68.796875 Z M 269.273438 68.796875 "/>
<path style=" stroke:none;fill-rule:nonzero;fill:rgb(67.098999%,67.799377%,68.598938%);fill-opacity:1;" d="M 323.539063 44.4375 C 322.394531 44.882813 321.195313 45.230469 319.921875 45.476563 C 318.648438 45.730469 316.570313 45.976563 313.644531 46.238281 C 309.144531 46.671875 305.910156 47.207031 303.976563 47.859375 C 302.039063 48.507813 300.484375 49.535156 299.324219 50.957031 C 298.164063 52.371094 297.441406 53.945313 297.160156 55.664063 C 296.789063 57.96875 297.222656 59.855469 298.460938 61.3125 C 299.703125 62.796875 301.683594 63.546875 304.402344 63.546875 C 306.941406 63.546875 309.503906 62.828125 312.058594 61.398438 C 314.648438 59.96875 316.8125 57.96875 318.578125 55.390625 C 320.355469 52.832031 321.996094 49.1875 323.539063 44.4375 M 317.71875 62.8125 C 314.664063 65.273438 311.808594 67.066406 309.191406 68.191406 C 306.550781 69.316406 303.835938 69.890625 301.050781 69.890625 C 296.902344 69.890625 293.78125 68.589844 291.679688 65.957031 C 289.570313 63.351563 288.847656 60.003906 289.503906 55.933594 C 289.953125 53.246094 290.910156 50.875 292.382813 48.8125 C 293.878906 46.730469 295.648438 45.070313 297.742188 43.824219 C 299.832031 42.566406 302.292969 41.671875 305.109375 41.140625 C 306.890625 40.761719 310.191406 40.472656 315.027344 40.273438 C 319.867188 40.054688 323.390625 39.507813 325.621094 38.636719 C 326.578125 36.402344 327.175781 34.554688 327.425781 33.0625 C 327.726563 31.179688 327.328125 29.679688 326.199219 28.589844 C 324.683594 27.074219 322.222656 26.316406 318.820313 26.316406 C 315.597656 26.316406 312.855469 27.074219 310.558594 28.609375 C 308.257813 30.132813 306.421875 32.308594 305.035156 35.097656 L 297.429688 34.390625 C 299.777344 29.613281 302.875 25.957031 306.71875 23.421875 C 310.558594 20.886719 315.082031 19.613281 320.289063 19.613281 C 325.832031 19.613281 329.984375 21.039063 332.773438 23.875 C 334.90625 25.992188 335.679688 28.738281 335.132813 32.109375 C 334.71875 34.683594 333.878906 37.664063 332.632813 41.023438 L 328.179688 53.003906 C 326.773438 56.789063 325.875 59.882813 325.492188 62.28125 C 325.238281 63.785156 325.195313 65.957031 325.351563 68.796875 L 317.628906 68.796875 C 317.464844 67.238281 317.472656 65.234375 317.71875 62.8125 "/>
<path style=" stroke:none;fill-rule:nonzero;fill:rgb(67.098999%,67.799377%,68.598938%);fill-opacity:1;" d="M 332.011719 68.796875 L 349.226563 20.710938 L 356.164063 20.710938 L 353.152344 29.085938 C 356.703125 25.796875 359.914063 23.402344 362.769531 21.875 C 365.636719 20.363281 368.445313 19.613281 371.164063 19.613281 C 374.8125 19.613281 377.480469 20.675781 379.21875 22.792969 C 380.929688 24.914063 381.496094 27.738281 380.929688 31.25 C 380.636719 33.042969 379.816406 35.84375 378.460938 39.691406 L 368.011719 68.796875 L 360.359375 68.796875 L 371.300781 38.3125 C 372.363281 35.363281 373.015625 33.179688 373.253906 31.761719 C 373.507813 30.144531 373.214844 28.855469 372.335938 27.855469 C 371.476563 26.863281 370.085938 26.363281 368.136719 26.363281 C 364.210938 26.363281 360.480469 27.878906 356.917969 30.902344 C 353.382813 33.902344 350.300781 39.089844 347.667969 46.433594 L 339.667969 68.796875 "/>
<g clip-path="url(#clip2)" clip-rule="nonzero">
<path style=" stroke:none;fill-rule:nonzero;fill:rgb(67.098999%,67.799377%,68.598938%);fill-opacity:1;" d="M 396.488281 62.144531 L 394.132813 68.855469 C 392.210938 69.355469 390.390625 69.609375 388.675781 69.609375 C 385.636719 69.609375 383.34375 68.804688 381.804688 67.222656 C 380.636719 66 380.242188 64.363281 380.578125 62.28125 C 380.761719 61.222656 381.523438 58.789063 382.871094 54.976563 L 392.878906 27.042969 L 386.828125 27.042969 L 389.101563 20.707031 L 395.140625 20.707031 L 399.390625 8.894531 L 409.058594 3.222656 L 402.785156 20.707031 L 410.304688 20.707031 L 408.003906 27.042969 L 400.523438 27.042969 L 390.996094 53.636719 C 389.789063 57.011719 389.140625 59.023438 389.027344 59.703125 C 388.863281 60.664063 389.003906 61.398438 389.441406 61.925781 C 389.875 62.433594 390.695313 62.675781 391.882813 62.675781 C 393.566406 62.675781 395.105469 62.5 396.488281 62.144531 "/>
</g>
<path style=" stroke:none;fill-rule:nonzero;fill:rgb(0.799561%,52.89917%,13.299561%);fill-opacity:1;" d="M 205.308594 70.738281 C 204.363281 72.855469 202.476563 74.761719 200.089844 73.703125 C 197.804688 72.695313 197.933594 70.003906 198.863281 67.902344 C 199.839844 65.679688 201.730469 63.785156 204.023438 64.808594 C 206.410156 65.855469 206.28125 68.53125 205.308594 70.738281 "/>
<path style=" stroke:none;fill-rule:nonzero;fill:rgb(0.799561%,52.89917%,13.299561%);fill-opacity:1;" d="M 70.449219 67.171875 L 98.210938 0.511719 L 105.394531 0.511719 L 77.621094 67.171875 Z M 70.449219 67.171875 "/>
<path style=" stroke:none;fill-rule:evenodd;fill:rgb(0.799561%,52.89917%,13.299561%);fill-opacity:1;" d="M 104.273438 0 C 95.808594 0.410156 88.007813 1.863281 80.871094 4.28125 C 77.347656 5.472656 73.984375 6.914063 70.773438 8.601563 C 58.023438 15.300781 47.90625 25.949219 40.394531 40.53125 C 37.398438 46.335938 34.769531 52.714844 32.613281 59.808594 C 32.589844 59.914063 32.535156 60.054688 32.496094 60.148438 C 32.425781 60.566406 32.371094 60.988281 32.324219 61.410156 C 32.257813 61.730469 32.222656 62.039063 32.171875 62.390625 C 32.109375 65.46875 31.855469 68.5 31.820313 71.605469 C 31.828125 71.582031 31.832031 71.566406 31.84375 71.566406 C 34.550781 63.496094 37.835938 56.265625 41.53125 49.660156 C 42.746094 47.46875 44.019531 45.3125 45.351563 43.269531 C 45.503906 43.015625 45.695313 42.761719 45.855469 42.503906 C 47.710938 39.742188 49.644531 37.105469 51.652344 34.617188 C 55.953125 29.285156 60.648438 24.539063 65.730469 20.371094 C 68.03125 18.496094 70.394531 16.707031 72.867188 15.039063 L 72.871094 15.019531 C 72.921875 14.984375 72.976563 14.96875 73.039063 14.921875 C 75.296875 13.40625 77.613281 11.945313 79.996094 10.585938 C 87.300781 6.488281 95.144531 3.222656 103.476563 0.664063 C 105.023438 1.515625 106.808594 0.0742188 104.273438 0 "/>
<path style=" stroke:none;fill-rule:evenodd;fill:rgb(3.49884%,37.599182%,13.699341%);fill-opacity:1;" d="M 87.863281 32.074219 C 84.277344 30.105469 80.742188 28.90625 77.246094 28.363281 C 75.523438 28.089844 73.816406 27.984375 72.117188 28.058594 C 65.363281 28.335938 58.792969 31.394531 52.414063 37.199219 C 49.875 39.5 47.34375 42.226563 44.855469 45.425781 C 44.828125 45.460938 44.785156 45.53125 44.742188 45.574219 C 44.621094 45.785156 44.5 45.992188 44.375 46.199219 C 43.425781 47.878906 42.441406 49.46875 41.742188 51.402344 C 41.6875 51.542969 41.625 51.683594 41.585938 51.835938 C 41.699219 51.679688 41.796875 51.582031 41.902344 51.453125 C 44.835938 47.867188 47.816406 44.867188 50.800781 42.320313 C 51.820313 41.488281 52.820313 40.664063 53.828125 39.933594 C 53.96875 39.816406 54.09375 39.753906 54.210938 39.664063 C 55.609375 38.667969 56.992188 37.765625 58.386719 36.964844 C 61.363281 35.214844 64.355469 33.882813 67.378906 33.015625 C 68.753906 32.589844 70.140625 32.261719 71.53125 32.015625 C 71.53125 32.027344 71.535156 32.003906 71.535156 32.003906 C 71.566406 32.007813 71.59375 31.988281 71.621094 32.015625 C 72.894531 31.773438 74.183594 31.578125 75.472656 31.472656 C 79.382813 31.167969 83.375 31.453125 87.375 32.253906 C 87.820313 33.035156 88.882813 32.765625 87.863281 32.074219 "/>
<path style=" stroke:none;fill-rule:nonzero;fill:rgb(57.299805%,73.699951%,1.998901%);fill-opacity:1;" d="M 22.925781 17.335938 C 15.707031 9.554688 4.703125 19.070313 0 42.570313 C 0.0507813 42.648438 0.0859375 42.753906 0.128906 42.816406 C 3.703125 28.738281 10.296875 19.09375 16.074219 19.0625 C 24.855469 21.925781 27.820313 35.382813 30.265625 57.199219 C 30.757813 61.46875 30.941406 66.003906 31.035156 70.796875 C 31.097656 70.996094 31.175781 71.25 31.273438 71.453125 C 32.800781 48.328125 29.84375 24.761719 22.925781 17.335938 "/>
</g>
</svg>
